# xmcd CD database file
# Copyright (C) 1993-1998 Ti Kan
# 
# Track frame offsets:
#     150
#     14890
#     29467
#     44202
#     63692
#     76532
#     94127
#     105095
#     117827
#     130950
#     142550
#     156532
#     169045
#     185042
#     197687
#     212665
# 
# Disc length: 2943 seconds
# 
# Revision: 1
# Processed by: cddbd v1.4b41PL1 Copyright (c) Steve Scherf et al.
# Submitted via: DiscPlay 4.0.4
# 
DISCID=df0b7d10
DTITLE=Phil Manning - Two Roads
DYEAR=1900
DGENRE=
TTITLE0=Water on the Road
TTITLE1=New Dress
TTITLE2=If You See My Baby
TTITLE3=Two Roads
TTITLE4=Too Late Too Late
TTITLE5=Just Eighteen
TTITLE6=Squeeze Your Hips
TTITLE7=Travellin'Highway Blues
TTITLE8=Bills To Pay
TTITLE9=Gettin' Back Under My Skin
TTITLE10=Christmas Morning Phone Call
TTITLE11=Dingo Moan
TTITLE12=A Thousand Miles Away
TTITLE13=Rap Trap Blues
TTITLE14=Madness Set Loose
TTITLE15=Across The Sea
EXTD=
EXTT0=
EXTT1=
EXTT2=
EXTT3=
EXTT4=
EXTT5=
EXTT6=
EXTT7=
EXTT8=
EXTT9=
EXTT10=
EXTT11=
EXTT12=
EXTT13=
EXTT14=
EXTT15=
PLAYORDER=
